# xmcd
#
# Track frame offsets:
# 150
# 19792
# 41509
# 66643
# 89687
# 97147
# 131757
# 147456
# 149487
# 171510
# 189221
# 203763
# 228674
#
# Disc length: 3268 seconds
#
#
# Revision: 0
# Processed by: cddbd v1.5.2PL0 Copyright (c) Steve Scherf et al.
# Submitted via: Nero 7, 11, 10, 0 
#
DISCID=ce0cc20d
DTITLE=Frank Goldwasser - With The Alastair Greene Band
DYEAR=2006
DGENRE=Blues
TTITLE0=55th Street Boogie
TTITLE1=She's Gone
TTITLE2=I'm Gonna Wait
TTITLE3=Wish I Had Never
TTITLE4=Guitar Rumba
TTITLE5=Too Poor To Die
TTITLE6=Walkin' With Frankie
TTITLE7=Marim 'Ud
TTITLE8=Be Bop A-Lula
TTITLE9=Goldwasser's Dysfunctional Blues #36
TTITLE10=The Winner
TTITLE11=Sleepwalk
TTITLE12=Jodie's Back On The Scene
EXTD=
EXTT0=55th Street Boogie
EXTT1=She's Gone
EXTT2=I'm Gonna Wait
EXTT3=Wish I Had Never
EXTT4=Guitar Rumba
EXTT5=Too Poor To Die
EXTT6=Walkin' With Frankie
EXTT7=Marim 'Ud
EXTT8=Be Bop A-Lula
EXTT9=Goldwasser's Dysfunctional Blues #36
EXTT10=The Winner
EXTT11=Sleepwalk
EXTT12=Jodie's Back On The Scene
PLAYORDER=
